<?xml version="1.0" standalone="no"?>
<!DOCTYPE svg PUBLIC "-//W3C//DTD SVG 20010904//EN"
 "http://www.w3.org/TR/2001/REC-SVG-20010904/DTD/svg10.dtd">
<svg version="1.0" xmlns="http://www.w3.org/2000/svg"
 width="240.000000pt" height="240.000000pt" viewBox="0 0 240.000000 240.000000"
 preserveAspectRatio="xMidYMid meet">
<metadata>
Created by potrace 1.11, written by Peter Selinger 2001-2013
</metadata>
<g transform="translate(0.000000,240.000000) scale(0.100000,-0.100000)"
fill="#000000" stroke="none">
<path d="M1590 2176 c0 -30 -82 -175 -135 -239 -68 -82 -152 -146 -263 -200
l-83 -40 56 -22 c95 -39 166 -87 244 -165 79 -79 127 -149 166 -246 l23 -57
36 77 c85 184 240 334 409 394 46 16 62 32 32 32 -23 0 -131 56 -196 101 -104
74 -216 218 -257 332 -16 45 -32 62 -32 33z"/>
<path d="M581 1650 c-44 -147 -191 -334 -339 -433 -72 -47 -193 -107 -217
-107 -25 0 -17 -17 13 -25 127 -31 334 -186 433 -324 37 -52 105 -184 114
-223 7 -29 25 -39 25 -14 0 56 131 265 222 353 98 96 241 186 331 208 28 7 37
25 13 25 -43 0 -196 85 -286 159 -54 44 -63 54 -118 116 -60 69 -131 191 -153
265 -7 22 -15 40 -19 40 -4 0 -12 -18 -19 -40z"/>
<path d="M2094 1280 c-5 -8 -19 -37 -31 -64 -31 -66 -126 -156 -196 -186 -55
-24 -72 -40 -42 -40 27 0 120 -62 169 -112 26 -28 61 -78 76 -110 l29 -60 32
63 c40 80 130 168 204 200 30 13 55 26 55 29 0 3 -25 16 -56 29 -88 38 -192
149 -221 236 -7 23 -11 26 -19 15z"/>
<path d="M1427 645 c-23 -56 -108 -142 -164 -167 -24 -10 -43 -23 -43 -27 0
-4 18 -16 40 -26 57 -26 137 -106 164 -166 l24 -51 25 48 c34 66 104 136 165
165 28 13 51 26 51 29 0 3 -22 15 -49 28 -64 30 -120 84 -160 155 -17 31 -33
57 -33 57 -1 0 -10 -20 -20 -45z"/>
</g>
</svg>
