<svg version="1" xmlns="http://www.w3.org/2000/svg" width="320" height="320" viewBox="0 0 240.000000 240.000000"><path d="M29.9 106.5c-.1 47.6-.2 87-.3 87.7 0 .7-1.3 1.9-2.8 2.7-2.4 1.4-2.8 1.4-4.7-.3-2.1-1.9-2.1-2.3-2.1-79.3V40H0v81.2c0 51.2.4 82.6 1 84.9 1.2 4.4 6.9 10.4 11.7 12.4 3.1 1.3 17.6 1.5 106.7 1.5 68.7 0 104.4-.4 106.9-1.1 2-.5 5.3-2.6 7.2-4.5 6.9-6.8 6.5-1 6.5-102.5V20H30l-.1 86.5zM220 115v75H50V40h170v75z"/><path d="M70 90v20h60V70H70v20zM150 75v5h50V70h-50v5zM150 105v5h50v-10h-50v5zM70 135v5h130v-10H70v5zM70 165v5h130v-10H70v5z"/></svg>