<?xml version="1.0" standalone="no"?>
<!DOCTYPE svg PUBLIC "-//W3C//DTD SVG 20010904//EN"
 "http://www.w3.org/TR/2001/REC-SVG-20010904/DTD/svg10.dtd">
<svg version="1.0" xmlns="http://www.w3.org/2000/svg"
 width="1008.000000pt" height="1008.000000pt" viewBox="0 0 1008.000000 1008.000000"
 preserveAspectRatio="xMidYMid meet">
<metadata>
Created by potrace 1.11, written by Peter Selinger 2001-2013
</metadata>
<g transform="translate(0.000000,1008.000000) scale(0.100000,-0.100000)"
fill="#000000" stroke="none">
<path d="M3200 9348 c-30 -4 -62 -11 -70 -14 -8 -4 -28 -8 -45 -10 -28 -4 -44
-8 -100 -30 -11 -4 -23 -6 -27 -6 -5 1 -8 -3 -8 -10 0 -6 -3 -9 -6 -5 -12 12
-253 -121 -262 -144 -2 -5 -10 -9 -17 -9 -7 0 -15 -3 -17 -7 -1 -5 -28 -28
-58 -53 -46 -38 -89 -80 -202 -201 -10 -11 -18 -22 -18 -25 0 -3 -15 -24 -34
-47 -46 -58 -107 -156 -158 -257 -24 -47 -45 -87 -48 -90 -3 -3 -6 -9 -7 -15
-1 -5 -13 -36 -27 -67 -14 -32 -22 -58 -18 -58 4 0 2 -4 -3 -8 -6 -4 -17 -27
-25 -52 -7 -25 -15 -49 -17 -55 -24 -78 -73 -284 -78 -330 -3 -32 -8 -62 -10
-65 -5 -9 -15 -110 -20 -204 -3 -49 -7 -91 -9 -93 -2 -3 0 -18 4 -34 5 -17 5
-31 -1 -35 -5 -3 -6 -10 -3 -16 4 -5 8 -56 9 -111 2 -56 6 -115 9 -132 2 -16
7 -50 11 -75 3 -25 8 -57 11 -72 3 -15 7 -40 9 -57 2 -16 9 -49 16 -73 6 -24
13 -54 16 -67 13 -74 102 -313 158 -426 103 -208 202 -349 356 -504 65 -65
227 -191 247 -191 6 0 12 -4 14 -8 8 -19 199 -105 283 -127 6 -1 12 -3 15 -4
121 -43 434 -49 534 -11 14 5 26 7 26 5 0 -4 75 21 165 55 11 4 25 9 30 11 44
13 244 144 304 199 24 22 45 40 47 40 18 0 218 235 254 299 8 14 18 28 21 31
13 11 93 156 134 243 64 137 136 357 161 487 2 14 7 36 10 50 7 33 13 72 30
210 10 81 10 420 0 520 -5 41 -9 86 -10 100 -2 14 -6 39 -10 57 -4 17 -9 44
-11 60 -6 42 -30 137 -59 233 -15 47 -28 92 -30 101 -18 73 -165 375 -190 391
-6 4 -8 8 -4 8 7 0 -27 58 -50 85 -5 6 -17 24 -28 40 -10 17 -21 32 -24 35 -3
3 -28 32 -55 64 -81 97 -202 208 -310 284 -94 65 -288 150 -395 173 -25 5 -56
12 -70 15 -46 9 -284 11 -340 2z"/>
<path d="M6449 9356 c-2 -2 -26 -7 -54 -10 -52 -6 -90 -13 -90 -16 0 -1 -7 -3
-15 -5 -8 -2 -24 -6 -35 -9 -70 -17 -283 -112 -305 -136 -3 -3 -29 -22 -59
-42 -95 -66 -167 -131 -276 -250 -74 -81 -171 -228 -237 -358 -24 -47 -45 -87
-48 -90 -3 -3 -6 -9 -7 -15 -1 -5 -13 -35 -27 -66 -14 -31 -22 -60 -19 -63 4
-3 1 -6 -5 -6 -7 0 -12 -6 -12 -12 0 -7 -13 -53 -29 -103 -28 -88 -72 -267
-70 -282 1 -5 0 -10 -1 -13 -4 -11 -10 -47 -14 -80 -2 -19 -5 -35 -6 -35 -4 0
-22 -323 -21 -380 1 -79 24 -320 31 -320 1 0 3 -16 5 -35 5 -47 10 -75 25
-135 6 -27 14 -61 16 -74 15 -76 103 -314 159 -426 52 -106 179 -314 204 -335
3 -3 28 -32 56 -64 27 -33 74 -82 103 -110 30 -28 64 -60 76 -71 11 -11 38
-31 58 -45 21 -14 38 -28 38 -32 0 -5 5 -8 12 -8 6 0 19 -6 27 -14 29 -25 185
-103 251 -126 36 -12 73 -26 83 -32 11 -5 21 -7 24 -4 3 2 16 0 30 -5 79 -30
347 -33 478 -5 11 3 21 5 23 6 1 2 5 3 10 5 4 1 21 5 37 10 40 11 175 62 199
76 11 6 40 23 65 37 103 57 233 162 325 261 23 25 51 56 64 68 12 13 22 28 22
33 0 4 3 10 8 12 13 5 72 85 72 97 0 7 7 14 15 17 8 4 15 10 15 15 0 4 11 25
25 46 94 137 236 500 269 688 3 17 8 41 11 55 9 36 14 69 20 115 2 22 7 61 10
87 4 25 8 80 10 121 1 42 6 81 10 86 3 6 2 11 -2 11 -7 0 -9 44 -3 60 1 3 2 9
0 15 -1 5 -4 59 -6 120 -3 60 -6 119 -8 130 -2 11 -6 47 -11 80 -9 67 -13 90
-15 90 -1 0 -3 11 -5 25 -1 14 -8 48 -15 75 -6 28 -14 61 -16 74 -3 14 -25 85
-49 159 -47 139 -119 300 -186 410 -21 35 -39 68 -39 73 0 5 -4 9 -10 9 -5 0
-10 7 -10 15 0 8 -4 15 -8 15 -4 0 -15 13 -25 29 -24 40 -106 136 -200 232
-136 141 -405 292 -587 330 -25 5 -56 12 -70 15 -29 6 -286 14 -291 10z"/>
<path d="M1198 6484 c-3 -2 -34 -7 -69 -9 -35 -2 -75 -6 -89 -9 -60 -10 -91
-17 -114 -26 -15 -5 -26 -6 -26 -3 0 4 -5 2 -12 -5 -7 -7 -19 -12 -28 -12 -24
0 -185 -85 -258 -136 -98 -69 -240 -217 -311 -325 -33 -52 -65 -98 -69 -104
-11 -14 -25 -49 -24 -57 1 -5 -3 -8 -8 -8 -6 0 -10 -4 -10 -9 0 -5 -10 -30
-22 -57 -12 -27 -23 -51 -23 -54 -1 -3 -6 -16 -12 -30 -27 -65 -78 -242 -89
-310 -2 -14 -7 -41 -10 -60 -3 -19 -9 -57 -12 -85 -8 -68 -8 -378 0 -440 4
-27 9 -68 12 -90 7 -57 14 -95 26 -134 5 -19 7 -37 5 -42 -3 -4 -1 -9 4 -11 5
-1 11 -16 14 -33 6 -35 50 -161 78 -222 10 -24 19 -44 18 -45 -1 -2 13 -27 30
-56 17 -29 31 -55 31 -57 0 -7 83 -130 119 -175 43 -54 209 -220 221 -220 5 0
15 -6 22 -13 22 -22 108 -78 108 -71 0 4 8 0 17 -8 26 -23 135 -67 232 -94 46
-13 86 -23 90 -22 3 0 8 -1 11 -2 3 -1 32 -3 66 -4 33 -1 66 -6 72 -10 7 -4
17 -4 23 0 6 4 37 8 68 9 67 4 109 11 175 30 27 8 52 12 57 9 5 -3 9 0 9 5 0
6 7 11 16 11 38 0 243 115 319 180 81 68 226 225 217 235 -3 3 -1 5 4 5 6 0
23 22 39 50 17 27 33 50 38 50 4 0 7 6 7 13 0 7 11 29 25 49 14 20 25 43 25
51 0 8 7 20 15 27 8 6 14 15 13 18 -1 4 8 30 21 57 13 28 24 55 25 60 2 6 6
17 9 25 11 28 49 155 53 180 3 14 12 58 20 99 16 81 24 143 29 239 1 35 5 66
8 69 3 3 2 15 -3 27 -4 13 -4 29 0 36 5 8 6 18 3 24 -3 5 -7 43 -9 85 -2 78
-11 164 -18 191 -3 8 -7 31 -10 50 -3 19 -8 46 -11 60 -3 14 -8 34 -10 45 -42
197 -180 483 -304 629 -70 83 -196 198 -272 248 -75 50 -185 108 -213 112 -6
1 -16 5 -22 9 -24 14 -189 49 -250 52 -34 1 -66 5 -72 9 -5 3 -11 3 -14 0z"/>
<path d="M8878 6484 c-3 -2 -34 -7 -69 -9 -35 -2 -75 -6 -89 -9 -60 -10 -91
-17 -114 -26 -15 -5 -26 -6 -26 -3 0 4 -5 2 -12 -5 -7 -7 -19 -12 -27 -12 -25
0 -186 -85 -259 -136 -98 -69 -240 -217 -311 -325 -33 -52 -65 -98 -69 -104
-35 -47 -136 -300 -157 -390 -38 -169 -49 -238 -61 -370 -5 -62 -5 -60 -3
-115 0 -25 0 -49 -1 -55 -1 -5 -1 -14 0 -20 1 -5 4 -39 6 -73 4 -89 16 -187
29 -242 3 -14 8 -38 11 -55 3 -16 7 -34 8 -40 2 -5 6 -27 11 -47 4 -21 10 -38
14 -38 4 0 8 -12 9 -26 1 -15 6 -32 11 -38 4 -6 11 -24 15 -40 4 -16 27 -72
52 -125 25 -53 44 -98 44 -100 -1 -2 2 -7 7 -10 4 -3 17 -22 27 -41 43 -78
134 -190 229 -282 55 -54 106 -98 113 -98 8 0 14 -4 14 -8 0 -18 221 -136 277
-148 7 -1 34 -9 60 -17 53 -17 124 -29 194 -32 25 -1 50 -4 55 -8 6 -3 16 -2
24 3 7 4 23 4 36 0 12 -5 25 -6 28 -3 3 3 18 7 33 9 25 2 49 6 109 18 78 15
254 85 287 114 9 8 17 11 17 6 0 -5 4 -4 8 1 4 6 34 28 66 50 33 22 101 81
150 131 95 95 96 97 136 154 14 19 28 37 31 40 13 11 94 158 129 234 46 99 63
150 100 291 45 173 55 261 55 485 -1 176 -16 328 -41 412 -3 10 -7 29 -10 42
-32 178 -179 484 -303 630 -70 83 -196 198 -272 248 -75 50 -185 108 -213 112
-6 1 -16 5 -22 9 -24 14 -189 49 -250 52 -34 1 -66 5 -72 9 -5 3 -11 3 -14 0z"/>
<path d="M4648 5195 c-2 -2 -39 -6 -83 -10 -114 -9 -222 -21 -269 -31 -12 -2
-34 -7 -51 -9 -24 -4 -157 -31 -200 -40 -5 -1 -30 -7 -55 -14 -25 -7 -52 -14
-61 -16 -35 -7 -246 -78 -271 -91 -14 -8 -31 -14 -37 -14 -25 0 -387 -176
-411 -200 -3 -3 -45 -29 -95 -59 -49 -30 -92 -57 -95 -60 -3 -4 -34 -28 -70
-55 -111 -82 -161 -126 -285 -251 -137 -138 -170 -174 -211 -230 -16 -22 -32
-44 -36 -50 -4 -5 -18 -23 -31 -40 -13 -16 -38 -55 -57 -85 -19 -30 -37 -57
-40 -60 -3 -3 -10 -14 -16 -25 -6 -11 -30 -56 -54 -100 -24 -44 -46 -82 -50
-85 -4 -3 -31 -34 -59 -70 -28 -36 -57 -72 -64 -80 -7 -8 -21 -32 -32 -53 -11
-20 -23 -37 -27 -37 -5 0 -8 -5 -8 -10 0 -6 -12 -29 -27 -53 -91 -144 -244
-505 -267 -629 -2 -15 -7 -31 -10 -36 -3 -5 -7 -19 -10 -33 -3 -13 -8 -35 -11
-49 -12 -54 -26 -127 -31 -170 -3 -25 -7 -58 -10 -75 -5 -24 -15 -199 -15
-240 0 -37 11 -206 15 -235 13 -90 23 -146 31 -170 3 -10 8 -29 10 -41 7 -34
35 -122 46 -141 5 -10 9 -22 9 -28 0 -24 88 -191 143 -273 51 -75 181 -218
242 -267 49 -39 96 -70 105 -70 5 0 10 -4 10 -8 0 -11 151 -85 215 -105 157
-51 357 -55 516 -11 30 8 62 17 72 19 48 11 64 17 160 60 17 8 39 15 47 17 8
2 21 9 28 16 8 7 17 10 22 7 5 -3 10 -2 12 2 1 5 23 18 48 30 66 33 175 93
262 146 42 26 81 47 86 47 6 0 12 4 14 8 7 16 439 264 573 329 44 21 83 43 87
48 4 6 8 7 8 3 0 -4 28 6 63 21 93 43 171 52 432 52 186 0 235 -3 415 -25 8
-1 32 -10 53 -19 94 -43 113 -51 120 -51 4 -1 11 -7 16 -14 5 -8 10 -13 12
-11 12 8 441 -240 469 -270 3 -4 15 -12 28 -18 12 -7 32 -19 45 -25 12 -7 24
-15 27 -19 3 -3 23 -16 45 -29 22 -13 42 -27 45 -30 3 -3 39 -25 80 -49 41
-25 77 -47 80 -50 3 -3 14 -11 25 -17 324 -176 485 -233 685 -240 167 -6 313
26 450 99 128 68 144 80 265 188 33 30 63 59 67 64 3 6 29 39 57 75 28 36 55
70 59 75 4 6 17 26 28 45 10 19 22 37 25 40 5 4 33 62 82 172 10 20 17 43 17
52 0 9 4 16 10 16 5 0 9 3 8 8 -1 4 6 34 16 67 10 33 20 71 23 84 2 14 6 28 9
33 3 5 7 23 9 41 5 43 15 109 21 128 2 8 6 68 9 132 3 64 5 120 6 124 1 4 1
10 0 13 -1 3 -4 50 -6 105 -2 55 -6 114 -9 130 -2 17 -8 53 -12 80 -3 28 -8
59 -11 70 -2 11 -6 31 -9 45 -8 48 -26 125 -35 155 -57 197 -117 353 -198 515
-66 131 -91 174 -169 279 -31 41 -77 114 -103 161 -68 126 -101 183 -110 194
-5 6 -35 48 -67 93 -154 219 -346 411 -596 597 -49 36 -95 66 -103 66 -7 0
-13 4 -13 8 0 13 -199 130 -320 188 -161 77 -452 188 -550 208 -14 3 -61 15
-105 26 -44 11 -91 22 -105 25 -69 14 -209 37 -240 41 -81 8 -137 15 -170 20
-38 5 -577 14 -582 9z"/>
</g>
</svg>
